<svg width="15" height="20" viewBox="0 0 15 20" fill="none" xmlns="http://www.w3.org/2000/svg">
<path d="M2.77189 0.439054L3.84789 0.0950539C4.85689 -0.226946 5.93489 0.294054 6.36689 1.31205L7.22689 3.34005C7.60089 4.22305 7.39289 5.26205 6.71289 5.90805L4.81789 7.70605C4.93489 8.78205 5.29689 9.84105 5.90289 10.8831C6.47836 11.8912 7.25026 12.7736 8.17289 13.4781L10.4489 12.7181C11.3109 12.4311 12.2509 12.7621 12.7789 13.5391L14.0119 15.3491C14.6269 16.2531 14.5159 17.4991 13.7529 18.2651L12.9359 19.0861C12.1219 19.9031 10.9589 20.2001 9.88389 19.8641C7.34389 19.0721 5.01089 16.7211 2.88089 12.8111C0.747887 8.89505 -0.00511295 5.57105 0.622887 2.84305C0.886887 1.69505 1.70389 0.780054 2.77189 0.439054Z" fill="white"/>
</svg>
