<svg width="307" height="107" viewBox="0 0 307 107" fill="none" xmlns="http://www.w3.org/2000/svg">
<rect width="307" height="107" fill="#E9983F"/>
<circle cx="40" cy="53" r="25" fill="white" fill-opacity="0.3"/>
<path d="M25.006 68L27.034 60.548C25.6977 58.2573 24.9957 55.652 25 53C25 44.7155 31.7155 38 40 38C48.2845 38 55 44.7155 55 53C55 61.2845 48.2845 68 40 68C37.3492 68.0043 34.745 67.3027 32.455 65.9675L25.006 68ZM34.5865 45.962C34.3928 45.974 34.2035 46.025 34.03 46.112C33.8673 46.2041 33.7188 46.3193 33.589 46.454C33.409 46.6235 33.307 46.7705 33.1975 46.913C32.6431 47.6345 32.3449 48.5201 32.35 49.43C32.353 50.165 32.545 50.8805 32.845 51.5495C33.4585 52.9025 34.468 54.335 35.8015 55.6625C36.1225 55.982 36.436 56.303 36.7735 56.6015C38.4286 58.0587 40.4009 59.1095 42.5335 59.6705L43.387 59.801C43.6645 59.816 43.942 59.795 44.221 59.7815C44.6579 59.7589 45.0844 59.6406 45.4705 59.435C45.6669 59.3338 45.8586 59.2237 46.045 59.105C46.045 59.105 46.1095 59.063 46.2325 58.97C46.435 58.82 46.5595 58.7135 46.7275 58.538C46.852 58.409 46.96 58.2575 47.0425 58.085C47.1595 57.8405 47.2765 57.374 47.3245 56.9855C47.3605 56.6885 47.35 56.5265 47.3455 56.426C47.3395 56.2655 47.206 56.099 47.0605 56.0285L46.1875 55.637C46.1875 55.637 44.8825 55.0685 44.086 54.7055C44.002 54.6689 43.912 54.648 43.8205 54.644C43.7179 54.6334 43.6142 54.645 43.5164 54.6779C43.4186 54.7107 43.329 54.7641 43.2535 54.8345V54.8315C43.246 54.8315 43.1455 54.917 42.061 56.231C41.9988 56.3146 41.913 56.3778 41.8147 56.4126C41.7164 56.4473 41.61 56.452 41.509 56.426C41.4113 56.3999 41.3155 56.3668 41.2225 56.327C41.0365 56.249 40.972 56.219 40.8445 56.1635L40.837 56.1605C39.9789 55.7858 39.1843 55.2798 38.482 54.6605C38.293 54.4955 38.1175 54.3155 37.9375 54.1415C37.3474 53.5763 36.8331 52.937 36.4075 52.2395L36.319 52.097C36.2554 52.0012 36.2041 51.8979 36.166 51.7895C36.109 51.569 36.2575 51.392 36.2575 51.392C36.2575 51.392 36.622 50.993 36.7915 50.777C36.9326 50.5975 37.0643 50.4107 37.186 50.2175C37.363 49.9325 37.4185 49.64 37.3255 49.4135C36.9055 48.3875 36.4705 47.366 36.0235 46.352C35.935 46.151 35.6725 46.007 35.434 45.9785C35.353 45.9695 35.272 45.9605 35.191 45.9545C34.9896 45.9445 34.7877 45.9465 34.5865 45.9605V45.962Z" fill="white"/>
<path d="M93.688 42.096C92.5787 42.096 91.576 41.8507 90.68 41.36C89.7947 40.8693 89.096 40.192 88.584 39.328C88.0827 38.4533 87.832 37.4773 87.832 36.4C87.832 35.3227 88.0827 34.352 88.584 33.488C89.096 32.6133 89.8 31.9307 90.696 31.44C91.592 30.9493 92.5947 30.704 93.704 30.704C94.536 30.704 95.304 30.8427 96.008 31.12C96.712 31.3973 97.3093 31.8027 97.8 32.336L97.048 33.088C96.1733 32.2027 95.0693 31.76 93.736 31.76C92.8507 31.76 92.0453 31.9627 91.32 32.368C90.5947 32.7733 90.024 33.328 89.608 34.032C89.2027 34.736 89 35.5253 89 36.4C89 37.2747 89.2027 38.064 89.608 38.768C90.024 39.472 90.5947 40.0267 91.32 40.432C92.0453 40.8373 92.8507 41.04 93.736 41.04C95.08 41.04 96.184 40.592 97.048 39.696L97.8 40.448C97.3093 40.9813 96.7067 41.392 95.992 41.68C95.288 41.9573 94.52 42.096 93.688 42.096ZM102.903 33.52C104.002 33.52 104.844 33.7973 105.431 34.352C106.018 34.896 106.311 35.7067 106.311 36.784V42H105.223V40.688C104.967 41.1253 104.588 41.4667 104.087 41.712C103.596 41.9573 103.01 42.08 102.327 42.08C101.388 42.08 100.642 41.856 100.087 41.408C99.5323 40.96 99.255 40.368 99.255 39.632C99.255 38.9173 99.511 38.3413 100.023 37.904C100.546 37.4667 101.372 37.248 102.503 37.248H105.175V36.736C105.175 36.0107 104.972 35.4613 104.567 35.088C104.162 34.704 103.57 34.512 102.791 34.512C102.258 34.512 101.746 34.6027 101.255 34.784C100.764 34.9547 100.343 35.1947 99.991 35.504L99.479 34.656C99.9057 34.2933 100.418 34.016 101.015 33.824C101.612 33.6213 102.242 33.52 102.903 33.52ZM102.503 41.184C103.143 41.184 103.692 41.04 104.151 40.752C104.61 40.4533 104.951 40.0267 105.175 39.472V38.096H102.535C101.095 38.096 100.375 38.5973 100.375 39.6C100.375 40.0907 100.562 40.48 100.935 40.768C101.308 41.0453 101.831 41.184 102.503 41.184ZM109.397 30.128H110.533V42H109.397V30.128ZM113.693 30.128H114.829V42H113.693V30.128ZM129.762 33.584V42H128.674V40.464C128.375 40.976 127.964 41.376 127.442 41.664C126.919 41.9413 126.322 42.08 125.65 42.08C124.551 42.08 123.682 41.776 123.042 41.168C122.412 40.5493 122.098 39.648 122.098 38.464V33.584H123.234V38.352C123.234 39.2373 123.452 39.9093 123.89 40.368C124.327 40.8267 124.951 41.056 125.762 41.056C126.647 41.056 127.346 40.7893 127.858 40.256C128.37 39.712 128.626 38.96 128.626 38V33.584H129.762ZM135.199 42.08C134.517 42.08 133.861 41.984 133.231 41.792C132.613 41.5893 132.127 41.3387 131.775 41.04L132.287 40.144C132.639 40.4213 133.082 40.6507 133.615 40.832C134.149 41.0027 134.703 41.088 135.279 41.088C136.047 41.088 136.613 40.9707 136.975 40.736C137.349 40.4907 137.535 40.1493 137.535 39.712C137.535 39.4027 137.434 39.1627 137.231 38.992C137.029 38.8107 136.773 38.6773 136.463 38.592C136.154 38.496 135.743 38.4053 135.231 38.32C134.549 38.192 133.999 38.064 133.583 37.936C133.167 37.7973 132.81 37.568 132.511 37.248C132.223 36.928 132.079 36.4853 132.079 35.92C132.079 35.216 132.373 34.64 132.959 34.192C133.546 33.744 134.362 33.52 135.407 33.52C135.951 33.52 136.495 33.5947 137.039 33.744C137.583 33.8827 138.031 34.0693 138.383 34.304L137.887 35.216C137.194 34.736 136.367 34.496 135.407 34.496C134.682 34.496 134.133 34.624 133.759 34.88C133.397 35.136 133.215 35.472 133.215 35.888C133.215 36.208 133.317 36.464 133.519 36.656C133.733 36.848 133.994 36.992 134.303 37.088C134.613 37.1733 135.039 37.264 135.583 37.36C136.255 37.488 136.794 37.616 137.199 37.744C137.605 37.872 137.951 38.0907 138.239 38.4C138.527 38.7093 138.671 39.136 138.671 39.68C138.671 40.416 138.362 41.0027 137.743 41.44C137.135 41.8667 136.287 42.08 135.199 42.08ZM148.399 42.08C147.588 42.08 146.858 41.8987 146.207 41.536C145.556 41.1627 145.044 40.6507 144.671 40C144.298 39.3493 144.111 38.6133 144.111 37.792C144.111 36.9707 144.298 36.2347 144.671 35.584C145.044 34.9333 145.556 34.4267 146.207 34.064C146.858 33.7013 147.588 33.52 148.399 33.52C149.21 33.52 149.94 33.7013 150.591 34.064C151.242 34.4267 151.748 34.9333 152.111 35.584C152.484 36.2347 152.671 36.9707 152.671 37.792C152.671 38.6133 152.484 39.3493 152.111 40C151.748 40.6507 151.242 41.1627 150.591 41.536C149.94 41.8987 149.21 42.08 148.399 42.08ZM148.399 41.072C148.996 41.072 149.53 40.9387 149.999 40.672C150.479 40.3947 150.852 40.0053 151.119 39.504C151.386 39.0027 151.519 38.432 151.519 37.792C151.519 37.152 151.386 36.5813 151.119 36.08C150.852 35.5787 150.479 35.1947 149.999 34.928C149.53 34.6507 148.996 34.512 148.399 34.512C147.802 34.512 147.263 34.6507 146.783 34.928C146.314 35.1947 145.94 35.5787 145.663 36.08C145.396 36.5813 145.263 37.152 145.263 37.792C145.263 38.432 145.396 39.0027 145.663 39.504C145.94 40.0053 146.314 40.3947 146.783 40.672C147.263 40.9387 147.802 41.072 148.399 41.072ZM159.278 33.52C160.334 33.52 161.172 33.8293 161.79 34.448C162.42 35.056 162.734 35.9467 162.734 37.12V42H161.598V37.232C161.598 36.3573 161.38 35.6907 160.942 35.232C160.505 34.7733 159.881 34.544 159.07 34.544C158.164 34.544 157.444 34.816 156.91 35.36C156.388 35.8933 156.126 36.6347 156.126 37.584V42H154.99V33.584H156.078V35.136C156.388 34.624 156.814 34.2293 157.358 33.952C157.913 33.664 158.553 33.52 159.278 33.52ZM185.622 30.8L181.846 42H180.598L177.318 32.448L174.022 42H172.79L169.014 30.8H170.23L173.462 40.432L176.806 30.8H177.91L181.206 40.48L184.486 30.8H185.622ZM192.075 33.52C193.131 33.52 193.968 33.8293 194.587 34.448C195.216 35.056 195.531 35.9467 195.531 37.12V42H194.395V37.232C194.395 36.3573 194.176 35.6907 193.739 35.232C193.302 34.7733 192.678 34.544 191.867 34.544C190.96 34.544 190.24 34.816 189.707 35.36C189.184 35.8933 188.923 36.6347 188.923 37.584V42H187.787V30.128H188.923V35.056C189.232 34.5653 189.659 34.1867 190.203 33.92C190.747 33.6533 191.371 33.52 192.075 33.52ZM201.559 33.52C202.658 33.52 203.501 33.7973 204.087 34.352C204.674 34.896 204.967 35.7067 204.967 36.784V42H203.879V40.688C203.623 41.1253 203.245 41.4667 202.743 41.712C202.253 41.9573 201.666 42.08 200.983 42.08C200.045 42.08 199.298 41.856 198.743 41.408C198.189 40.96 197.911 40.368 197.911 39.632C197.911 38.9173 198.167 38.3413 198.679 37.904C199.202 37.4667 200.029 37.248 201.159 37.248H203.831V36.736C203.831 36.0107 203.629 35.4613 203.223 35.088C202.818 34.704 202.226 34.512 201.447 34.512C200.914 34.512 200.402 34.6027 199.911 34.784C199.421 34.9547 198.999 35.1947 198.647 35.504L198.135 34.656C198.562 34.2933 199.074 34.016 199.671 33.824C200.269 33.6213 200.898 33.52 201.559 33.52ZM201.159 41.184C201.799 41.184 202.349 41.04 202.807 40.752C203.266 40.4533 203.607 40.0267 203.831 39.472V38.096H201.191C199.751 38.096 199.031 38.5973 199.031 39.6C199.031 40.0907 199.218 40.48 199.591 40.768C199.965 41.0453 200.487 41.184 201.159 41.184ZM212.485 41.488C212.271 41.68 212.005 41.8293 211.685 41.936C211.375 42.032 211.05 42.08 210.709 42.08C209.919 42.08 209.311 41.8667 208.885 41.44C208.458 41.0133 208.245 40.4107 208.245 39.632V34.544H206.741V33.584H208.245V31.744H209.381V33.584H211.941V34.544H209.381V39.568C209.381 40.0693 209.503 40.4533 209.749 40.72C210.005 40.976 210.367 41.104 210.837 41.104C211.071 41.104 211.295 41.0667 211.509 40.992C211.733 40.9173 211.925 40.8107 212.085 40.672L212.485 41.488ZM216.809 42.08C216.126 42.08 215.47 41.984 214.841 41.792C214.222 41.5893 213.737 41.3387 213.385 41.04L213.897 40.144C214.249 40.4213 214.691 40.6507 215.225 40.832C215.758 41.0027 216.313 41.088 216.889 41.088C217.657 41.088 218.222 40.9707 218.585 40.736C218.958 40.4907 219.145 40.1493 219.145 39.712C219.145 39.4027 219.043 39.1627 218.841 38.992C218.638 38.8107 218.382 38.6773 218.073 38.592C217.763 38.496 217.353 38.4053 216.841 38.32C216.158 38.192 215.609 38.064 215.193 37.936C214.777 37.7973 214.419 37.568 214.121 37.248C213.833 36.928 213.689 36.4853 213.689 35.92C213.689 35.216 213.982 34.64 214.569 34.192C215.155 33.744 215.971 33.52 217.017 33.52C217.561 33.52 218.105 33.5947 218.649 33.744C219.193 33.8827 219.641 34.0693 219.993 34.304L219.497 35.216C218.803 34.736 217.977 34.496 217.017 34.496C216.291 34.496 215.742 34.624 215.369 34.88C215.006 35.136 214.825 35.472 214.825 35.888C214.825 36.208 214.926 36.464 215.129 36.656C215.342 36.848 215.603 36.992 215.913 37.088C216.222 37.1733 216.649 37.264 217.193 37.36C217.865 37.488 218.403 37.616 218.809 37.744C219.214 37.872 219.561 38.0907 219.849 38.4C220.137 38.7093 220.281 39.136 220.281 39.68C220.281 40.416 219.971 41.0027 219.353 41.44C218.745 41.8667 217.897 42.08 216.809 42.08ZM225.325 33.52C226.424 33.52 227.266 33.7973 227.853 34.352C228.44 34.896 228.733 35.7067 228.733 36.784V42H227.645V40.688C227.389 41.1253 227.01 41.4667 226.509 41.712C226.018 41.9573 225.432 42.08 224.749 42.08C223.81 42.08 223.064 41.856 222.509 41.408C221.954 40.96 221.677 40.368 221.677 39.632C221.677 38.9173 221.933 38.3413 222.445 37.904C222.968 37.4667 223.794 37.248 224.925 37.248H227.597V36.736C227.597 36.0107 227.394 35.4613 226.989 35.088C226.584 34.704 225.992 34.512 225.213 34.512C224.68 34.512 224.168 34.6027 223.677 34.784C223.186 34.9547 222.765 35.1947 222.413 35.504L221.901 34.656C222.328 34.2933 222.84 34.016 223.437 33.824C224.034 33.6213 224.664 33.52 225.325 33.52ZM224.925 41.184C225.565 41.184 226.114 41.04 226.573 40.752C227.032 40.4533 227.373 40.0267 227.597 39.472V38.096H224.957C223.517 38.096 222.797 38.5973 222.797 39.6C222.797 40.0907 222.984 40.48 223.357 40.768C223.73 41.0453 224.253 41.184 224.925 41.184ZM236.154 33.52C236.944 33.52 237.658 33.7013 238.298 34.064C238.938 34.416 239.44 34.9173 239.802 35.568C240.165 36.2187 240.346 36.96 240.346 37.792C240.346 38.6347 240.165 39.3813 239.802 40.032C239.44 40.6827 238.938 41.1893 238.298 41.552C237.669 41.904 236.954 42.08 236.154 42.08C235.472 42.08 234.853 41.9413 234.298 41.664C233.754 41.376 233.306 40.96 232.954 40.416V45.104H231.818V33.584H232.906V35.248C233.248 34.6933 233.696 34.2667 234.25 33.968C234.816 33.6693 235.45 33.52 236.154 33.52ZM236.074 41.072C236.661 41.072 237.194 40.9387 237.674 40.672C238.154 40.3947 238.528 40.0053 238.794 39.504C239.072 39.0027 239.21 38.432 239.21 37.792C239.21 37.152 239.072 36.5867 238.794 36.096C238.528 35.5947 238.154 35.2053 237.674 34.928C237.194 34.6507 236.661 34.512 236.074 34.512C235.477 34.512 234.938 34.6507 234.458 34.928C233.989 35.2053 233.616 35.5947 233.338 36.096C233.072 36.5867 232.938 37.152 232.938 37.792C232.938 38.432 233.072 39.0027 233.338 39.504C233.616 40.0053 233.989 40.3947 234.458 40.672C234.938 40.9387 235.477 41.072 236.074 41.072ZM246.998 33.52C247.787 33.52 248.502 33.7013 249.142 34.064C249.782 34.416 250.283 34.9173 250.646 35.568C251.009 36.2187 251.19 36.96 251.19 37.792C251.19 38.6347 251.009 39.3813 250.646 40.032C250.283 40.6827 249.782 41.1893 249.142 41.552C248.513 41.904 247.798 42.08 246.998 42.08C246.315 42.08 245.697 41.9413 245.142 41.664C244.598 41.376 244.15 40.96 243.798 40.416V45.104H242.662V33.584H243.75V35.248C244.091 34.6933 244.539 34.2667 245.094 33.968C245.659 33.6693 246.294 33.52 246.998 33.52ZM246.918 41.072C247.505 41.072 248.038 40.9387 248.518 40.672C248.998 40.3947 249.371 40.0053 249.638 39.504C249.915 39.0027 250.054 38.432 250.054 37.792C250.054 37.152 249.915 36.5867 249.638 36.096C249.371 35.5947 248.998 35.2053 248.518 34.928C248.038 34.6507 247.505 34.512 246.918 34.512C246.321 34.512 245.782 34.6507 245.302 34.928C244.833 35.2053 244.459 35.5947 244.182 36.096C243.915 36.5867 243.782 37.152 243.782 37.792C243.782 38.432 243.915 39.0027 244.182 39.504C244.459 40.0053 244.833 40.3947 245.302 40.672C245.782 40.9387 246.321 41.072 246.918 41.072Z" fill="white"/>
<path d="M88.624 67.8H84.376V72H81.808V67.8H77.56V65.4H81.808V61.2H84.376V65.4H88.624V67.8ZM96.8763 57.96C99.1803 57.96 100.964 58.68 102.228 60.12C103.508 61.56 104.148 63.624 104.148 66.312C104.148 68.2 103.804 69.816 103.116 71.16C102.428 72.488 101.46 73.504 100.212 74.208C98.9803 74.896 97.5483 75.24 95.9163 75.24C95.0523 75.24 94.2363 75.152 93.4683 74.976C92.7163 74.784 92.0603 74.512 91.5003 74.16L92.6523 71.808C93.4843 72.352 94.5483 72.624 95.8443 72.624C97.4603 72.624 98.7243 72.128 99.6363 71.136C100.548 70.144 101.004 68.712 101.004 66.84V66.816C100.508 67.392 99.8763 67.832 99.1083 68.136C98.3403 68.424 97.4763 68.568 96.5163 68.568C95.4123 68.568 94.4203 68.36 93.5403 67.944C92.6603 67.512 91.9723 66.904 91.4763 66.12C90.9803 65.336 90.7323 64.432 90.7323 63.408C90.7323 62.32 91.0043 61.368 91.5483 60.552C92.0923 59.72 92.8283 59.08 93.7563 58.632C94.6843 58.184 95.7243 57.96 96.8763 57.96ZM97.1163 66.12C98.1243 66.12 98.9403 65.848 99.5643 65.304C100.204 64.76 100.524 64.072 100.524 63.24C100.524 62.424 100.212 61.752 99.5883 61.224C98.9803 60.68 98.1323 60.408 97.0443 60.408C96.0683 60.408 95.2763 60.672 94.6683 61.2C94.0603 61.712 93.7563 62.4 93.7563 63.264C93.7563 64.144 94.0603 64.84 94.6683 65.352C95.2763 65.864 96.0923 66.12 97.1163 66.12ZM111.95 58.2V75H108.83V60.816H105.278V58.2H111.95ZM127.579 57.96C129.883 57.96 131.667 58.68 132.931 60.12C134.211 61.56 134.851 63.624 134.851 66.312C134.851 68.2 134.507 69.816 133.819 71.16C133.131 72.488 132.163 73.504 130.915 74.208C129.683 74.896 128.251 75.24 126.619 75.24C125.755 75.24 124.939 75.152 124.171 74.976C123.419 74.784 122.763 74.512 122.203 74.16L123.355 71.808C124.187 72.352 125.251 72.624 126.547 72.624C128.163 72.624 129.427 72.128 130.339 71.136C131.251 70.144 131.707 68.712 131.707 66.84V66.816C131.211 67.392 130.579 67.832 129.811 68.136C129.043 68.424 128.179 68.568 127.219 68.568C126.115 68.568 125.123 68.36 124.243 67.944C123.363 67.512 122.675 66.904 122.179 66.12C121.683 65.336 121.435 64.432 121.435 63.408C121.435 62.32 121.707 61.368 122.251 60.552C122.795 59.72 123.531 59.08 124.459 58.632C125.387 58.184 126.427 57.96 127.579 57.96ZM127.819 66.12C128.827 66.12 129.643 65.848 130.267 65.304C130.907 64.76 131.227 64.072 131.227 63.24C131.227 62.424 130.915 61.752 130.291 61.224C129.683 60.68 128.835 60.408 127.747 60.408C126.771 60.408 125.979 60.672 125.371 61.2C124.763 61.712 124.459 62.4 124.459 63.264C124.459 64.144 124.763 64.84 125.371 65.352C125.979 65.864 126.795 66.12 127.819 66.12ZM147.858 66.168C148.738 66.568 149.41 67.112 149.874 67.8C150.354 68.472 150.594 69.264 150.594 70.176C150.594 71.2 150.306 72.096 149.73 72.864C149.17 73.632 148.37 74.224 147.33 74.64C146.29 75.04 145.082 75.24 143.706 75.24C142.33 75.24 141.122 75.04 140.082 74.64C139.058 74.224 138.266 73.632 137.706 72.864C137.146 72.096 136.866 71.2 136.866 70.176C136.866 69.264 137.098 68.472 137.562 67.8C138.026 67.112 138.69 66.568 139.554 66.168C138.882 65.8 138.362 65.32 137.994 64.728C137.642 64.12 137.466 63.424 137.466 62.64C137.466 61.696 137.722 60.872 138.234 60.168C138.762 59.464 139.498 58.92 140.442 58.536C141.386 58.152 142.474 57.96 143.706 57.96C144.954 57.96 146.05 58.152 146.994 58.536C147.938 58.92 148.674 59.464 149.202 60.168C149.73 60.872 149.994 61.696 149.994 62.64C149.994 63.424 149.81 64.112 149.442 64.704C149.074 65.296 148.546 65.784 147.858 66.168ZM143.706 60.408C142.73 60.408 141.954 60.616 141.378 61.032C140.818 61.448 140.538 62.032 140.538 62.784C140.538 63.504 140.818 64.08 141.378 64.512C141.954 64.928 142.73 65.136 143.706 65.136C144.698 65.136 145.482 64.928 146.058 64.512C146.634 64.08 146.922 63.504 146.922 62.784C146.922 62.032 146.626 61.448 146.034 61.032C145.458 60.616 144.682 60.408 143.706 60.408ZM143.706 72.792C144.858 72.792 145.77 72.552 146.442 72.072C147.114 71.592 147.45 70.928 147.45 70.08C147.45 69.248 147.114 68.592 146.442 68.112C145.77 67.632 144.858 67.392 143.706 67.392C142.554 67.392 141.65 67.632 140.994 68.112C140.338 68.592 140.01 69.248 140.01 70.08C140.01 70.928 140.338 71.592 140.994 72.072C141.65 72.552 142.554 72.792 143.706 72.792ZM159.627 75.24C158.283 75.24 157.083 74.904 156.027 74.232C154.971 73.544 154.139 72.552 153.531 71.256C152.923 69.944 152.619 68.392 152.619 66.6C152.619 64.808 152.923 63.264 153.531 61.968C154.139 60.656 154.971 59.664 156.027 58.992C157.083 58.304 158.283 57.96 159.627 57.96C160.971 57.96 162.171 58.304 163.227 58.992C164.299 59.664 165.139 60.656 165.747 61.968C166.355 63.264 166.659 64.808 166.659 66.6C166.659 68.392 166.355 69.944 165.747 71.256C165.139 72.552 164.299 73.544 163.227 74.232C162.171 74.904 160.971 75.24 159.627 75.24ZM159.627 72.528C160.827 72.528 161.771 72.032 162.459 71.04C163.163 70.048 163.515 68.568 163.515 66.6C163.515 64.632 163.163 63.152 162.459 62.16C161.771 61.168 160.827 60.672 159.627 60.672C158.443 60.672 157.499 61.168 156.795 62.16C156.107 63.152 155.763 64.632 155.763 66.6C155.763 68.568 156.107 70.048 156.795 71.04C157.499 72.032 158.443 72.528 159.627 72.528ZM169.148 67.08H175.748V69.576H169.148V67.08ZM189.015 66.168C189.895 66.568 190.567 67.112 191.031 67.8C191.511 68.472 191.751 69.264 191.751 70.176C191.751 71.2 191.463 72.096 190.887 72.864C190.327 73.632 189.527 74.224 188.487 74.64C187.447 75.04 186.239 75.24 184.863 75.24C183.487 75.24 182.279 75.04 181.239 74.64C180.215 74.224 179.423 73.632 178.863 72.864C178.303 72.096 178.023 71.2 178.023 70.176C178.023 69.264 178.255 68.472 178.719 67.8C179.183 67.112 179.847 66.568 180.711 66.168C180.039 65.8 179.519 65.32 179.151 64.728C178.799 64.12 178.623 63.424 178.623 62.64C178.623 61.696 178.879 60.872 179.391 60.168C179.919 59.464 180.655 58.92 181.599 58.536C182.543 58.152 183.631 57.96 184.863 57.96C186.111 57.96 187.207 58.152 188.151 58.536C189.095 58.92 189.831 59.464 190.359 60.168C190.887 60.872 191.151 61.696 191.151 62.64C191.151 63.424 190.967 64.112 190.599 64.704C190.231 65.296 189.703 65.784 189.015 66.168ZM184.863 60.408C183.887 60.408 183.111 60.616 182.535 61.032C181.975 61.448 181.695 62.032 181.695 62.784C181.695 63.504 181.975 64.08 182.535 64.512C183.111 64.928 183.887 65.136 184.863 65.136C185.855 65.136 186.639 64.928 187.215 64.512C187.791 64.08 188.079 63.504 188.079 62.784C188.079 62.032 187.783 61.448 187.191 61.032C186.615 60.616 185.839 60.408 184.863 60.408ZM184.863 72.792C186.015 72.792 186.927 72.552 187.599 72.072C188.271 71.592 188.607 70.928 188.607 70.08C188.607 69.248 188.271 68.592 187.599 68.112C186.927 67.632 186.015 67.392 184.863 67.392C183.711 67.392 182.807 67.632 182.151 68.112C181.495 68.592 181.167 69.248 181.167 70.08C181.167 70.928 181.495 71.592 182.151 72.072C182.807 72.552 183.711 72.792 184.863 72.792ZM206.447 58.2V60.288L199.919 75H196.583L202.895 60.84H196.295V63.696H193.391V58.2H206.447ZM214.916 75.24C213.572 75.24 212.372 74.904 211.316 74.232C210.26 73.544 209.428 72.552 208.82 71.256C208.212 69.944 207.908 68.392 207.908 66.6C207.908 64.808 208.212 63.264 208.82 61.968C209.428 60.656 210.26 59.664 211.316 58.992C212.372 58.304 213.572 57.96 214.916 57.96C216.26 57.96 217.46 58.304 218.516 58.992C219.588 59.664 220.428 60.656 221.036 61.968C221.644 63.264 221.948 64.808 221.948 66.6C221.948 68.392 221.644 69.944 221.036 71.256C220.428 72.552 219.588 73.544 218.516 74.232C217.46 74.904 216.26 75.24 214.916 75.24ZM214.916 72.528C216.116 72.528 217.06 72.032 217.748 71.04C218.452 70.048 218.804 68.568 218.804 66.6C218.804 64.632 218.452 63.152 217.748 62.16C217.06 61.168 216.116 60.672 214.916 60.672C213.732 60.672 212.788 61.168 212.084 62.16C211.396 63.152 211.052 64.632 211.052 66.6C211.052 68.568 211.396 70.048 212.084 71.04C212.788 72.032 213.732 72.528 214.916 72.528ZM224.437 67.08H231.037V69.576H224.437V67.08ZM245.845 58.2V60.288L239.317 75H235.981L242.293 60.84H235.693V63.696H232.789V58.2H245.845ZM253.439 57.96C255.743 57.96 257.527 58.68 258.791 60.12C260.071 61.56 260.711 63.624 260.711 66.312C260.711 68.2 260.367 69.816 259.679 71.16C258.991 72.488 258.023 73.504 256.775 74.208C255.543 74.896 254.111 75.24 252.479 75.24C251.615 75.24 250.799 75.152 250.031 74.976C249.279 74.784 248.623 74.512 248.063 74.16L249.215 71.808C250.047 72.352 251.111 72.624 252.407 72.624C254.023 72.624 255.287 72.128 256.199 71.136C257.111 70.144 257.567 68.712 257.567 66.84V66.816C257.071 67.392 256.439 67.832 255.671 68.136C254.903 68.424 254.039 68.568 253.079 68.568C251.975 68.568 250.983 68.36 250.103 67.944C249.223 67.512 248.535 66.904 248.039 66.12C247.543 65.336 247.295 64.432 247.295 63.408C247.295 62.32 247.567 61.368 248.111 60.552C248.655 59.72 249.391 59.08 250.319 58.632C251.247 58.184 252.287 57.96 253.439 57.96ZM253.679 66.12C254.687 66.12 255.503 65.848 256.127 65.304C256.767 64.76 257.087 64.072 257.087 63.24C257.087 62.424 256.775 61.752 256.151 61.224C255.543 60.68 254.695 60.408 253.607 60.408C252.631 60.408 251.839 60.672 251.231 61.2C250.623 61.712 250.319 62.4 250.319 63.264C250.319 64.144 250.623 64.84 251.231 65.352C251.839 65.864 252.655 66.12 253.679 66.12ZM268.486 57.96C270.79 57.96 272.574 58.68 273.838 60.12C275.118 61.56 275.758 63.624 275.758 66.312C275.758 68.2 275.414 69.816 274.726 71.16C274.038 72.488 273.07 73.504 271.822 74.208C270.59 74.896 269.158 75.24 267.526 75.24C266.662 75.24 265.846 75.152 265.078 74.976C264.326 74.784 263.67 74.512 263.11 74.16L264.262 71.808C265.094 72.352 266.158 72.624 267.454 72.624C269.07 72.624 270.334 72.128 271.246 71.136C272.158 70.144 272.614 68.712 272.614 66.84V66.816C272.118 67.392 271.486 67.832 270.718 68.136C269.95 68.424 269.086 68.568 268.126 68.568C267.022 68.568 266.03 68.36 265.15 67.944C264.27 67.512 263.582 66.904 263.086 66.12C262.59 65.336 262.342 64.432 262.342 63.408C262.342 62.32 262.614 61.368 263.158 60.552C263.702 59.72 264.438 59.08 265.366 58.632C266.294 58.184 267.334 57.96 268.486 57.96ZM268.726 66.12C269.734 66.12 270.55 65.848 271.174 65.304C271.814 64.76 272.134 64.072 272.134 63.24C272.134 62.424 271.822 61.752 271.198 61.224C270.59 60.68 269.742 60.408 268.654 60.408C267.678 60.408 266.886 60.672 266.278 61.2C265.67 61.712 265.366 62.4 265.366 63.264C265.366 64.144 265.67 64.84 266.278 65.352C266.886 65.864 267.702 66.12 268.726 66.12ZM290.423 58.2V60.288L283.895 75H280.559L286.871 60.84H280.271V63.696H277.367V58.2H290.423Z" fill="white"/>
</svg>
