<svg width="35" height="35" viewBox="0 0 35 35" fill="none" xmlns="http://www.w3.org/2000/svg">
<rect width="35" height="35" fill="#E9983F"/>
<path d="M15.8365 6.95163C16.7291 5.97161 18.271 5.97161 19.1636 6.95163L20.3113 8.21189C20.7623 8.70719 21.4107 8.97573 22.0799 8.94445L23.7826 8.86488C25.1066 8.803 26.1971 9.89338 26.1352 11.2175L26.0556 12.9202C26.0243 13.5894 26.2928 14.2377 26.7882 14.6887L28.0484 15.8365C29.0285 16.729 29.0285 18.271 28.0484 19.1635L26.7882 20.3113C26.2928 20.7623 26.0243 21.4106 26.0556 22.0799L26.1352 23.7826C26.1971 25.1066 25.1066 26.197 23.7826 26.1352L22.0799 26.0555C21.4107 26.0242 20.7623 26.2928 20.3113 26.7881L19.1636 28.0483C18.271 29.0284 16.7291 29.0284 15.8365 28.0483L14.6888 26.7881C14.2377 26.2928 13.5894 26.0242 12.9202 26.0555L11.2175 26.1352C9.89344 26.197 8.80306 25.1066 8.86494 23.7826L8.94452 22.0799C8.97579 21.4106 8.70725 20.7623 8.21195 20.3113L6.95169 19.1635C5.97167 18.271 5.97167 16.729 6.95169 15.8365L8.21195 14.6887C8.70725 14.2377 8.97579 13.5894 8.94452 12.9202L8.86494 11.2175C8.80306 9.89338 9.89344 8.803 11.2175 8.86488L12.9202 8.94445C13.5894 8.97573 14.2377 8.70719 14.6888 8.21189L15.8365 6.95163Z" stroke="white" stroke-width="2"/>
<path d="M14.125 17.5L16.375 19.75L20.875 15.25" stroke="white" stroke-width="2" stroke-linecap="round" stroke-linejoin="round"/>
</svg>
