<svg width="35" height="35" viewBox="0 0 35 35" fill="none" xmlns="http://www.w3.org/2000/svg">
<rect width="35" height="35" fill="#E9983F"/>
<path d="M24.25 9.90625V8.21875H10.75V9.90625H15.3906C16.3218 9.9091 17.2194 10.2548 17.912 10.8773C18.6045 11.4998 19.0436 12.3556 19.1453 13.2812H10.75V14.9688H19.1453C19.0436 15.8944 18.6045 16.7502 17.912 17.3727C17.2194 17.9952 16.3218 18.3409 15.3906 18.3438H10.75V20.3225L18.8643 27.625L19.9931 26.3709L12.9488 20.0312H15.3906C16.771 20.0291 18.0999 19.5069 19.1124 18.5686C20.1249 17.6304 20.7466 16.345 20.8536 14.9688H24.25V13.2812H20.8536C20.7569 12.0143 20.2214 10.8208 19.3394 9.90625H24.25Z" fill="white"/>
</svg>
